<?xml version="1.0" standalone="no"?><!DOCTYPE svg PUBLIC "-//W3C//DTD SVG 1.1//EN" "http://www.w3.org/Graphics/SVG/1.1/DTD/svg11.dtd"><svg t="1713619233333" class="icon" viewBox="0 0 1024 1024" version="1.1" xmlns="http://www.w3.org/2000/svg" p-id="4685" id="mx_n_1713619233334" xmlns:xlink="http://www.w3.org/1999/xlink" width="200" height="200"><path d="M175.343384 76.039396H144.927225v887.130287h563.377889v-30.416158H175.343384z" fill="#B8E8FF" p-id="4686"></path><path d="M830.385723 0H84.094908v1024H939.907092V0h-109.521369zM592.094151 30.416158h101.003884V193.308296l-50.500942-46.757169-50.502942 46.757169V30.416158zM114.511067 993.585841V30.416158h386.334608v136.491736h30.416159v-136.491736h30.416158v232.505923l80.919101-74.917464 80.9171 74.917464V30.416158h76.457371v963.169683H114.511067z m794.977866 0h-24.344526V765.465653H854.728249v228.118189h-24.342526V30.416158h24.342526v555.254381h30.416158V30.416158h24.344526v963.169683z" fill="#B8E8FF" p-id="4687"></path><path d="M854.726249 626.230084h30.416158v98.684025h-30.416158zM346.741006 523.358312a62.216233 62.216233 0 0 0 16.155022 2.121872c7.721532 0 15.555058-1.409915 23.338587-4.197746l61.814257 107.065517-104.71166 181.365019 26.340405 15.20708 95.932192-166.15794 95.932191 166.15794 26.340406-15.20708-104.71166-181.365019 52.006851-90.080545a75.895405 75.895405 0 0 0 24.072542 3.941761c27.146356 0 52.434825-14.591117 65.994004-38.077695l33.297984-57.666508c20.98273-36.359799 8.479487-83.014974-27.872312-104.005703a76.14539 76.14539 0 0 0-38.017698-10.213381c-27.144356 0-52.430825 14.591117-65.992005 38.081694l-33.293984 57.664508c-18.386887 31.850072-11.07133 71.601665 15.465064 95.082243l-43.219383 74.859468-53.036789-91.864438c10.769348-9.129447 18.132902-20.390765 21.554695-33.159992 4.615721-17.228957 1.665899-35.67184-8.531484-53.332771l-57.050545-98.816017-26.340406 15.207079 57.050546 98.816017c6.075632 10.523363 7.975517 20.984729 5.491668 30.252169-1.345919 5.025696-4.027756 9.695413-7.839526 13.899158l-75.579424-130.910074-26.340405 15.207079 75.579424 130.908074c-5.545664 1.197927-10.927338 1.183928-15.955034-0.16199-9.267439-2.48385-17.376948-9.357433-23.45258-19.882796l-57.050546-98.812017-26.340405 15.207079 57.050546 98.812017c10.193383 17.662931 24.690505 29.438218 41.919462 34.055938z m172.965527-80.163146l33.293985-57.664509c8.145507-14.109146 23.338587-22.872615 39.651599-22.872615a45.717232 45.717232 0 0 1 22.810619 6.137629c21.832678 12.605237 29.338224 40.62554 16.738986 62.460218l-33.295984 57.664508c-8.145507 14.107146-23.338587 22.870615-39.653599 22.870616a45.707233 45.707233 0 0 1-22.806619-6.133629c-21.834678-12.607237-29.344223-40.62954-16.738987-62.462218z" fill="#B8E8FF" p-id="4688"></path></svg>